<?xml version="1.0" encoding="UTF-8"?>
<svg id="logosandtypes_com" data-name="logosandtypes com" xmlns="http://www.w3.org/2000/svg" viewBox="0 0 150 150">
  <defs>
    <style>
      .cls-1 {
        fill: #fff;
      }

      .cls-2 {
        fill: none;
      }

      .cls-3 {
        fill: #1e7a44;
      }

      .cls-4 {
        fill: #51b13e;
      }

      .cls-5 {
        fill: #cedc21;
      }
    </style>
  </defs>
  <path class="cls-2" d="M0,0H150V150H0V0Z"/>
  <path class="cls-5" d="M50.62,142.33c-4.36,0-7.88-3.53-7.88-7.89V15.76c0-4.36,3.53-7.89,7.88-7.89s7.89,3.53,7.89,7.89v118.68c0,4.36-3.53,7.89-7.89,7.89"/>
  <path class="cls-4" d="M50.62,142.33c-2.95,0-5.78-1.66-7.13-4.51-1.87-3.93-.19-8.64,3.75-10.51l47.56-22.56-48.85-35.99c-3.5-2.58-4.25-7.52-1.67-11.03,2.58-3.51,7.52-4.25,11.03-1.67l59.47,43.81c2.23,1.65,3.44,4.35,3.17,7.11-.27,2.76-1.96,5.18-4.47,6.37l-59.47,28.22c-1.09,.51-2.24,.76-3.38,.76"/>
  <path class="cls-5" d="M50.63,95.68c-2.42,0-4.81-1.11-6.36-3.21-2.58-3.5-1.84-8.44,1.67-11.03l48.85-35.99L47.24,22.88c-3.94-1.87-5.61-6.57-3.75-10.51,1.87-3.94,6.57-5.61,10.51-3.75l59.47,28.22c2.51,1.19,4.2,3.61,4.47,6.37,.27,2.76-.94,5.46-3.17,7.11l-59.47,43.81c-1.41,1.04-3.05,1.54-4.67,1.54h0Z"/>
  <polygon class="cls-3" points="58.5 58.43 58.5 91.78 81.13 75.11 58.5 58.43"/>
  <rect class="cls-1" x="42.73" y="44.44" width="15.77" height="38.44"/>
  <path class="cls-5" d="M58.5,15.76c0-4.36-3.53-7.89-7.89-7.89s-7.88,3.53-7.88,7.89V115.01h15.77V15.76h0Z"/>
</svg>