<svg xmlns="http://www.w3.org/2000/svg" style="display: none;">
  <symbol id="pos-light" viewBox="0 0 24 24" fill="none" stroke="currentColor" stroke-width="2">
    <rect x="3" y="3" width="18" height="18" rx="2"/>
    <path d="M9 9h6M9 12h6M9 15h6"/>
  </symbol>
  <symbol id="pos-static" viewBox="0 0 24 24" fill="none" stroke="currentColor" stroke-width="2">
    <rect x="3" y="3" width="8" height="8" rx="1"/>
    <rect x="13" y="3" width="8" height="8" rx="1"/>
    <rect x="3" y="13" width="8" height="8" rx="1"/>
    <rect x="13" y="13" width="8" height="8" rx="1"/>
  </symbol>
  <symbol id="pos-cart" viewBox="0 0 24 24" fill="none" stroke="currentColor" stroke-width="2">
    <path d="M3 3h2l.4 2M7 13h10l4-8H5.4M7 13L5.4 5M7 13l-2.293 2.293c-.63.63-.184 1.707.707 1.707H17m0 0a2 2 0 100 4 2 2 0 000-4zm-8 2a2 2 0 11-4 0 2 2 0 014 0z"/>
  </symbol>
  <symbol id="pos-print" viewBox="0 0 24 24" fill="none" stroke="currentColor" stroke-width="2">
    <path d="M6 9V2h12v7M6 18H4a2 2 0 01-2-2v-5a2 2 0 012-2h16a2 2 0 012 2v5a2 2 0 01-2 2h-2"/>
    <path d="M6 14h12v8H6v-8z"/>
  </symbol>
</svg>

