<?xml version="1.0" encoding="UTF-8"?>
<!DOCTYPE svg PUBLIC "-//W3C//DTD SVG 1.1//EN" "http://www.w3.org/Graphics/SVG/1.1/DTD/svg11.dtd">
<!-- Creator: CorelDRAW -->
<svg xmlns="http://www.w3.org/2000/svg" xml:space="preserve" width="87.8411mm" height="118.182mm" version="1.1" style="shape-rendering:geometricPrecision; text-rendering:geometricPrecision; image-rendering:optimizeQuality; fill-rule:evenodd; clip-rule:evenodd"
viewBox="0 0 1130.37 1520.8"
 xmlns:xlink="http://www.w3.org/1999/xlink"
 xmlns:xodm="http://www.corel.com/coreldraw/odm/2003">
 <defs>
  <style type="text/css">
   <![CDATA[
    .fil1 {fill:#FEFEFE}
    .fil0 {fill:#FEFEFE;fill-opacity:0.301961}
   ]]>
  </style>
 </defs>
 <g id="Layer_x0020_1">
  <metadata id="CorelCorpID_0Corel-Layer"/>
  <g id="_2733140963664">
   <polygon class="fil0" points="477.61,1520.8 523.91,1319.5 359.58,1275.09 313.27,1476.39 "/>
   <polygon class="fil0" points="817.2,44.55 771.04,245.88 606.73,201.34 652.9,0 "/>
   <polygon class="fil0" points="137.26,416.54 1092.19,674.66 1130.37,508.76 175.44,250.64 "/>
   <polygon class="fil0" points="68.63,714.12 1023.56,972.25 1061.74,806.34 106.81,548.22 "/>
   <polygon class="fil0" points="-0,1011.71 954.93,1269.83 993.11,1103.93 38.18,845.81 "/>
   <g>
    <polygon class="fil1" points="0.26,1011.99 433.67,1129.1 471.84,963.2 38.43,846.08 "/>
    <polygon class="fil1" points="521.76,1153.07 686.06,1197.61 724.23,1031.71 559.93,987.17 "/>
    <polygon class="fil1" points="502.06,831.41 233.12,758.2 106.81,548.22 376.02,621.51 "/>
    <polygon class="fil1" points="137.26,416.54 570.67,533.62 608.85,367.72 175.44,250.64 "/>
    <polygon class="fil1" points="1023.56,972.25 590.2,855.18 628.32,689.27 1061.74,806.34 "/>
    <polygon class="fil1" points="658.77,557.58 1092.19,674.66 1130.37,508.76 696.95,391.69 "/>
   </g>
  </g>
 </g>
</svg>
